<svg id="_2" data-name="2" xmlns="http://www.w3.org/2000/svg" xmlns:xlink="http://www.w3.org/1999/xlink" width="269" height="77" viewBox="0 0 269 77">
  <defs>
    <style>
      .cls-1 {
        fill: #03132b;
        stroke: #707070;
        stroke-linejoin: round;
        stroke-width: 2px;
      }

      .cls-1, .cls-2, .cls-4, .cls-5 {
        fill-rule: evenodd;
      }

      .cls-2, .cls-5 {
        fill: #b7b7b7;
      }

      .cls-2 {
        opacity: 0.2;
      }

      .cls-3 {
        fill: #fdfaee;
        filter: url(#filter);
      }

      .cls-4 {
        fill: #ffd100;
      }
    </style>
    <filter id="filter" x="10" y="10" width="59" height="59" filterUnits="userSpaceOnUse">
      <feGaussianBlur result="blur" stdDeviation="6" in="SourceAlpha"/>
      <feComposite result="composite"/>
      <feComposite result="composite-2"/>
      <feComposite result="composite-3"/>
      <feFlood result="flood" flood-color="#fece3c" flood-opacity="0.45"/>
      <feComposite result="composite-4" operator="in" in2="composite-3"/>
      <feBlend result="blend" in2="SourceGraphic"/>
      <feBlend result="blend-2" in="SourceGraphic"/>
    </filter>
  </defs>
  <path class="cls-1" d="M75.551,45.117a37.468,37.468,0,0,0-2.976-22.6l-5.439,3.14-3.2-5.538,5.44-3.141A37.468,37.468,0,0,0,51.295,3.1L49.669,9.173,43.492,7.518,45.118,1.45a37.467,37.467,0,0,0-22.6,2.976l3.14,5.439-5.538,3.2-3.14-5.44A37.468,37.468,0,0,0,3.1,25.706l6.068,1.626L7.518,33.509,1.45,31.883a37.467,37.467,0,0,0,2.976,22.6l5.439-3.14,3.2,5.538-5.44,3.141A37.467,37.467,0,0,0,25.706,73.9l1.626-6.068,6.177,1.655-1.626,6.068a37.468,37.468,0,0,0,22.6-2.976L51.34,67.135l5.538-3.2,3.141,5.439A37.467,37.467,0,0,0,73.9,51.294l-6.068-1.626,1.655-6.177Z"/>
  <path class="cls-2" d="M17.661,27.8a21.512,21.512,0,0,1,9.449-5.962,20.592,20.592,0,0,1,6.808-.9,20.135,20.135,0,0,1,7.395,1.7,16.466,16.466,0,0,1,6.336,5.133,17.353,17.353,0,0,1,3.26,12.92A15.3,15.3,0,0,1,49.545,45.2a12.508,12.508,0,0,1-6.807,6.2,11.912,11.912,0,0,1-4.7.751,11.228,11.228,0,0,1-4.617-1.182,9.818,9.818,0,0,1-4.982-10.243,8.34,8.34,0,0,1,.7-2.3,7.019,7.019,0,0,1,3.175-3.241,6.7,6.7,0,0,1,4.484-.548,5.1,5.1,0,0,1,3.415,2.464l0.048,0a5.162,5.162,0,0,0-3.095-2.581,6.878,6.878,0,0,0-3.316-.2,7.544,7.544,0,0,0-5.988,6.69,10.512,10.512,0,0,0,1.023,6.278,10.089,10.089,0,0,0,5.148,4.8,12.489,12.489,0,0,0,7.939.445,13.144,13.144,0,0,0,7.177-5,13.88,13.88,0,0,0,2.081-4.29A18.1,18.1,0,0,0,48.96,28.2a17.166,17.166,0,0,0-8.408-6.693,20.925,20.925,0,0,0-11.2-.83A21.519,21.519,0,0,0,18.993,26a22.456,22.456,0,0,0-6.31,10.314l0.031,0.045a23.68,23.68,0,0,1,.928-2.44A22.364,22.364,0,0,1,17.661,27.8ZM39.614,41.372l0.028,0.052a4.065,4.065,0,0,0,.152-1,3.751,3.751,0,0,0-1.066-2.689,3.958,3.958,0,0,0-4.313-.767,4.381,4.381,0,0,0-2.161,1.948,5.444,5.444,0,0,0-.56,3.284,5.505,5.505,0,0,0,5.277,4.809,6.385,6.385,0,0,0,4.065-1.168,6.756,6.756,0,0,0,2.628-3.824,8.629,8.629,0,0,0-.151-4.981,8.4,8.4,0,0,0-3.107-4.2,9.464,9.464,0,0,0-10.537.143,10.185,10.185,0,0,0-3.749,4.661,13.1,13.1,0,0,0,1.577,12.3,12.427,12.427,0,0,0,5.126,4.15A14.669,14.669,0,0,0,45.974,53.1a15.307,15.307,0,0,0,5.1-4.974,17.16,17.16,0,0,0,2.441-6.963,19.944,19.944,0,0,0-3.663-14.449,18.843,18.843,0,0,0-5.673-5.12,19.93,19.93,0,0,0-7.244-2.446A22.332,22.332,0,0,0,22,22.279a23.349,23.349,0,0,0-9.79,12.33l0.024,0.049a22.92,22.92,0,0,1,1.4-3.133,23.2,23.2,0,0,1,6.19-7.363,22.247,22.247,0,0,1,13.905-4.741,21.185,21.185,0,0,1,8.953,2.056,18.315,18.315,0,0,1,7.547,7.014,19.282,19.282,0,0,1,2.7,11.129,18.344,18.344,0,0,1-1.384,5.97,14.669,14.669,0,0,1-3.621,5.079A14.1,14.1,0,0,1,35.89,54.152a11.714,11.714,0,0,1-6.01-2.924A12.119,12.119,0,0,1,26.345,45.2a12.354,12.354,0,0,1,.4-7.2,9.469,9.469,0,0,1,4.9-5.235,8.975,8.975,0,0,1,7.213-.106,7.814,7.814,0,0,1,4.49,5.921A8.079,8.079,0,0,1,43,42.517a6.244,6.244,0,0,1-2.416,3.094,5.7,5.7,0,0,1-7.353-.721,5.374,5.374,0,0,1-1.317-3.906A4.431,4.431,0,0,1,33.983,37.4a3.959,3.959,0,0,1,4.108-.034A3.658,3.658,0,0,1,39.614,41.372ZM36.638,56.264A15.82,15.82,0,0,0,47.573,53.3a16.715,16.715,0,0,0,6.506-10.258,20.863,20.863,0,0,0-1.27-12.648,19.81,19.81,0,0,0-8.677-9.553,21.963,21.963,0,0,0-12.755-2.293,23.012,23.012,0,0,0-12.107,5.245A23.786,23.786,0,0,0,11.823,35.1l0.015,0.035A23.375,23.375,0,0,1,12.9,32.4a23.684,23.684,0,0,1,4.7-6.815,23.077,23.077,0,0,1,11.154-6.254,22.458,22.458,0,0,1,7.978-.391,20,20,0,0,1,8.461,3.03,19.463,19.463,0,0,1,6.673,7.512,20.393,20.393,0,0,1,2.116,10.856,19.275,19.275,0,0,1-1.352,5.753,16.082,16.082,0,0,1-3.355,5.08,15.541,15.541,0,0,1-11.355,4.7,14.562,14.562,0,0,1-6.383-1.558,13.251,13.251,0,0,1-5.077-4.7A13.893,13.893,0,0,1,26,35.453a11.2,11.2,0,0,1,5.861-4.85,10.813,10.813,0,0,1,7.735.173,9.8,9.8,0,0,1,5.5,6.211,10.267,10.267,0,0,1,.348,4.386,8.95,8.95,0,0,1-1.7,4.252l0,0.047a8.376,8.376,0,0,0,.578-0.842,8.847,8.847,0,0,0,1.073-2.745,10.383,10.383,0,0,0-.035-4.581,10.174,10.174,0,0,0-3.09-5.254,9.525,9.525,0,0,0-3.068-1.856,11.065,11.065,0,0,0-3.7-.664,11.221,11.221,0,0,0-7.7,3C23.1,36.893,22.437,45.477,27.079,51.2a13.56,13.56,0,0,0,4.231,3.5A14.633,14.633,0,0,0,36.638,56.264Zm-8.092-2.276a14.135,14.135,0,0,0,5.5,2.791,16.6,16.6,0,0,0,9.228-.211,17.187,17.187,0,0,0,9.491-7.455,20.821,20.821,0,0,0,2.463-14.181,21.385,21.385,0,0,0-8.245-13.54,20.217,20.217,0,0,0-7.622-3.469,23.761,23.761,0,0,0-8.453-.416A24.171,24.171,0,0,0,15.783,25.75v0.025S16.2,25.265,17.1,24.4a24.443,24.443,0,0,1,4.264-3.316A24,24,0,0,1,29.2,18a23.706,23.706,0,0,1,11.026.421A20.1,20.1,0,0,1,51.3,26.231,21.653,21.653,0,0,1,55.06,41.592a18.711,18.711,0,0,1-3.072,8.244,17.17,17.17,0,0,1-6.969,5.853,16.588,16.588,0,0,1-9.242,1.32,17.131,17.131,0,0,1-2.359-.514,14.085,14.085,0,0,1-2.346-.933,14.325,14.325,0,0,1-4.1-3.1l-0.026-.005A13.473,13.473,0,0,0,28.546,53.988Z"/>
  <path id="Shape_36_copy" data-name="Shape 36 copy" class="cls-2" d="M53.871,57.715A21.3,21.3,0,0,1,43.216,61a20.551,20.551,0,0,1-6.808-.926,20.273,20.273,0,0,1-6.714-3.594,16.7,16.7,0,0,1-4.813-6.645,17.486,17.486,0,0,1,.146-13.381,15.229,15.229,0,0,1,2.47-4.016,12.378,12.378,0,0,1,8.163-4.217,11.88,11.88,0,0,1,4.73.509,11.313,11.313,0,0,1,4.16,2.362,9.849,9.849,0,0,1,2.928,8.866,9.691,9.691,0,0,1-.727,2.374,8.309,8.309,0,0,1-1.263,2.044,6.946,6.946,0,0,1-3.9,2.3,6.684,6.684,0,0,1-4.474-.65,5.165,5.165,0,0,1-2.671-3.288L34.4,42.737a5.235,5.235,0,0,0,2.333,3.317,6.9,6.9,0,0,0,3.154,1.069,7.475,7.475,0,0,0,7.495-4.907A10.582,10.582,0,0,0,48,35.862a10.235,10.235,0,0,0-3.751-6,12.525,12.525,0,0,0-7.559-2.523,13.015,13.015,0,0,0-8.213,2.956A13.775,13.775,0,0,0,25.367,33.9a18.041,18.041,0,0,0-1.982,4.678,18.323,18.323,0,0,0,.338,10.5,17.409,17.409,0,0,0,6.418,8.7,20.992,20.992,0,0,0,10.615,3.756,21.335,21.335,0,0,0,11.368-2.425,22.255,22.255,0,0,0,8.731-8.334l-0.019-.051a23.56,23.56,0,0,1-1.52,2.121A22.155,22.155,0,0,1,53.871,57.715ZM36.118,38.774L36.1,38.716a4.059,4.059,0,0,0-.4.931,3.79,3.79,0,0,0,.344,2.887,3.98,3.98,0,0,0,3.973,1.88A4.336,4.336,0,0,0,42.6,43.1a5.435,5.435,0,0,0,1.38-3.036,5.577,5.577,0,0,0-3.872-6.051,6.353,6.353,0,0,0-4.227.061,6.692,6.692,0,0,0-3.516,3.014,8.658,8.658,0,0,0-1.125,4.868,8.525,8.525,0,0,0,1.931,4.89A9.475,9.475,0,0,0,43.394,49.48a10.081,10.081,0,0,0,4.814-3.529A13,13,0,0,0,50.546,40.1a13.265,13.265,0,0,0-.725-6.485,12.606,12.606,0,0,0-3.9-5.372A14.664,14.664,0,0,0,32.964,25.73a15.143,15.143,0,0,0-6.2,3.477,17.07,17.07,0,0,0-4.137,6.106,20.114,20.114,0,0,0-.148,14.97,19.119,19.119,0,0,0,4.176,6.457,20.116,20.116,0,0,0,6.377,4.28,22.253,22.253,0,0,0,15.238.9,23.117,23.117,0,0,0,12.609-9.371L60.87,52.5A23.288,23.288,0,0,1,50.856,60.67a22.106,22.106,0,0,1-14.65.931,21.334,21.334,0,0,1-8.129-4.351,18.584,18.584,0,0,1-5.5-8.787,19.446,19.446,0,0,1,.234-11.5,18.288,18.288,0,0,1,2.861-5.422,14.526,14.526,0,0,1,4.8-3.969,14.035,14.035,0,0,1,12.513-.206,11.851,11.851,0,0,1,5.063,4.417A12.389,12.389,0,0,1,47.7,45.433a9.373,9.373,0,0,1-6.075,3.782,8.984,8.984,0,0,1-7-1.8A7.921,7.921,0,0,1,31.793,40.5a8.083,8.083,0,0,1,1.342-3.724,6.181,6.181,0,0,1,3.124-2.362,5.716,5.716,0,0,1,6.923,2.636,5.429,5.429,0,0,1,.276,4.133,4.4,4.4,0,0,1-2.912,2.93,3.964,3.964,0,0,1-3.979-1.049A3.7,3.7,0,0,1,36.118,38.774ZM42.8,25.124a15.745,15.745,0,0,0-11.327-.005,16.566,16.566,0,0,0-8.906,8.228,20.972,20.972,0,0,0-2,12.593A20.1,20.1,0,0,0,26.51,57.486a22.091,22.091,0,0,0,11.743,5.583,22.836,22.836,0,0,0,13.041-1.893,23.564,23.564,0,0,0,10.083-9l-0.005-.038a23.8,23.8,0,0,1-8.008,7.737A22.867,22.867,0,0,1,40.987,63a22.461,22.461,0,0,1-7.81-1.723,20.192,20.192,0,0,1-7.4-5.166,19.751,19.751,0,0,1-4.532-9.039,20.547,20.547,0,0,1,.726-11.079,19.214,19.214,0,0,1,2.775-5.22,15.93,15.93,0,0,1,4.539-4.039,15.43,15.43,0,0,1,12.173-1.56,14.668,14.668,0,0,1,5.772,3.192,13.446,13.446,0,0,1,3.708,5.889A13.942,13.942,0,0,1,47.762,48.1a11.082,11.082,0,0,1-6.9,3.157,10.834,10.834,0,0,1-7.432-2.206A9.94,9.94,0,0,1,29.7,41.581a10.318,10.318,0,0,1,.783-4.343,8.9,8.9,0,0,1,2.73-3.673l0.016-.044a8.324,8.324,0,0,0-.774.664,8.791,8.791,0,0,0-1.738,2.378,10.407,10.407,0,0,0,.511,10.356,9.649,9.649,0,0,0,2.492,2.608,11.12,11.12,0,0,0,11.615.735c5.6-2.8,8.433-10.94,5.407-17.713a13.756,13.756,0,0,0-3.2-4.506A14.754,14.754,0,0,0,42.8,25.124Zm7.24,4.338a14.308,14.308,0,0,0-4.607-4.155,16.614,16.614,0,0,0-8.973-2.227,17.014,17.014,0,0,0-11.076,4.725,20.789,20.789,0,0,0-6,13.1,21.671,21.671,0,0,0,4.513,15.3,20.447,20.447,0,0,0,6.481,5.371A23.743,23.743,0,0,0,55.163,60.2l0.008-.024c0-.006-0.538.383-1.623,0.99a24.188,24.188,0,0,1-4.968,2.09,23.665,23.665,0,0,1-18.909-2.39A20.371,20.371,0,0,1,20.96,50.371a21.837,21.837,0,0,1,.285-15.88,18.6,18.6,0,0,1,5.073-7.18,16.989,16.989,0,0,1,8.23-3.837,16.552,16.552,0,0,1,9.269,1.156,17.253,17.253,0,0,1,2.149,1.119A14.232,14.232,0,0,1,48,27.272a14.525,14.525,0,0,1,3.172,4.086l0.023,0.012A13.658,13.658,0,0,0,50.035,29.463Z"/>
  <path id="Shape_36_copy_2" data-name="Shape 36 copy 2" class="cls-2" d="M51.5,17.377a21.979,21.979,0,0,1,5.88,9.614,21.575,21.575,0,0,1,.883,6.927,21.03,21.03,0,0,1-1.674,7.524,16.734,16.734,0,0,1-17.8,9.764,14.749,14.749,0,0,1-4.452-1.388,12.576,12.576,0,0,1-6.857-11.7,11.711,11.711,0,0,1,1.165-4.7,9.576,9.576,0,0,1,7.66-5.169,9.245,9.245,0,0,1,2.442.1,8.045,8.045,0,0,1,2.268.711,7.028,7.028,0,0,1,3.737,7.793,5.179,5.179,0,0,1-2.43,3.474l0,0.048a5.042,5.042,0,0,0,1.452-1.152,5.206,5.206,0,0,0,1.093-2,7.211,7.211,0,0,0,.2-3.374,7.54,7.54,0,0,0-6.6-6.092,10.148,10.148,0,0,0-10.921,6.279,13.086,13.086,0,0,0-.439,8.077,13.385,13.385,0,0,0,4.932,7.3,13.519,13.519,0,0,0,4.23,2.117,17.3,17.3,0,0,0,4.954.736A17.479,17.479,0,0,0,57.7,40.668,22.044,22.044,0,0,0,43.1,12.313l-0.044.031a22.888,22.888,0,0,1,2.407.944A21.994,21.994,0,0,1,51.5,17.377ZM38.115,39.713l-0.051.028a3.9,3.9,0,0,0,.988.155A3.634,3.634,0,0,0,41.7,38.812a4.121,4.121,0,0,0,.756-4.388,4.415,4.415,0,0,0-1.921-2.2,5.226,5.226,0,0,0-3.239-.57,5.492,5.492,0,0,0-3.238,1.683,5.822,5.822,0,0,0-1.5,3.685,6.663,6.663,0,0,0,4.923,6.81,8.293,8.293,0,0,0,9.055-3.316A9.883,9.883,0,0,0,46.4,29.8a10.111,10.111,0,0,0-4.6-3.815,12.464,12.464,0,0,0-6.158-.784,12.706,12.706,0,0,0-5.969,2.389A12.574,12.574,0,0,0,25.58,32.8a15.392,15.392,0,0,0,5.872,18.571,16.589,16.589,0,0,0,6.867,2.484,19.214,19.214,0,0,0,14.25-3.727,18.977,18.977,0,0,0,5.049-5.772,20.716,20.716,0,0,0,2.413-7.371,23.275,23.275,0,0,0-15.247-25.16l-0.048.025a22.233,22.233,0,0,1,3.09,1.423A23.134,23.134,0,0,1,59.763,33.721a22.125,22.125,0,0,1-2.027,9.109A18.54,18.54,0,0,1,39.842,53.253a17.626,17.626,0,0,1-5.888-1.408,14.485,14.485,0,0,1-5.009-3.684,14.661,14.661,0,0,1-3.435-12.237,12.075,12.075,0,0,1,2.883-6.115,11.868,11.868,0,0,1,13.046-3.19,9.452,9.452,0,0,1,5.267,12.327,7.731,7.731,0,0,1-9.722,4.214A6.19,6.19,0,0,1,33.934,40.7a5.932,5.932,0,0,1,.711-7.481,5.2,5.2,0,0,1,3.852-1.34,4.346,4.346,0,0,1,3.535,2.1,4.138,4.138,0,0,1,.034,4.18A3.556,3.556,0,0,1,38.115,39.713ZM23.428,36.685A16.437,16.437,0,0,0,36.471,54.43a19.992,19.992,0,0,0,12.474-1.292,19.772,19.772,0,0,0,9.422-8.829,22.959,22.959,0,0,0,2.261-12.977,23.788,23.788,0,0,0-5.172-12.319A23.416,23.416,0,0,0,44.3,11.437l-0.035.015a22.584,22.584,0,0,1,2.7,1.078,23.334,23.334,0,0,1,6.721,4.786A23.593,23.593,0,0,1,60.24,36.781a20.766,20.766,0,0,1-2.988,8.608,19.534,19.534,0,0,1-18.114,8.942,18.524,18.524,0,0,1-5.673-1.375,15.83,15.83,0,0,1-5.01-3.413A16.067,16.067,0,0,1,23.823,37.99,15.2,15.2,0,0,1,25.359,31.5a13.456,13.456,0,0,1,18.594-5.631A11.35,11.35,0,0,1,48.566,39.7a9.828,9.828,0,0,1-10.451,5.946,8.676,8.676,0,0,1-4.194-1.731l-0.046,0a8.26,8.26,0,0,0,.831.588,8.572,8.572,0,0,0,2.707,1.092,9.97,9.97,0,0,0,9.7-3.18,9.752,9.752,0,0,0,1.831-3.122,11.621,11.621,0,0,0-2.308-11.6c-4.1-4.777-12.569-5.452-18.216-.728a13.71,13.71,0,0,0-3.45,4.3A15.242,15.242,0,0,0,23.428,36.685Zm2.245-8.233a14.545,14.545,0,0,0-2.752,5.6A17.425,17.425,0,0,0,30.482,53.1,20,20,0,0,0,44.467,55.6,20.787,20.787,0,0,0,61.241,39.459a24.78,24.78,0,0,0-7.719-23.993H53.5s0.5,0.43,1.36,1.338a24.81,24.81,0,0,1,5.9,23.528A20.46,20.46,0,0,1,53.048,51.6,20.855,20.855,0,0,1,37.9,55.428a18.107,18.107,0,0,1-8.13-3.126,17.288,17.288,0,0,1-7.074-16.494,17.913,17.913,0,0,1,.506-2.4,14.668,14.668,0,0,1,3.978-6.56l0-.026A13.505,13.505,0,0,0,25.673,28.452Z"/>
  <circle class="cls-3" cx="39" cy="39" r="12"/>
  <path id="Industris" class="cls-4" d="M96.842,15.328H90.006V43.766h6.836V15.328Zm4.336,7.3V43.766h6.582V28.844a3.14,3.14,0,0,1,2.872-1.524,2.981,2.981,0,0,1,2.343.752,3.565,3.565,0,0,1,.645,2.354v13.34h6.6V30.153q-0.059-3.965-1.689-5.937a6.029,6.029,0,0,0-4.932-1.973,7.166,7.166,0,0,0-6.035,2.871l-0.215-2.481h-6.172ZM125.24,41.266a7.122,7.122,0,0,0,5.977,2.891,6.233,6.233,0,0,0,5.156-2.656l0.332,2.266h5.918v-30h-6.6v10.7a6.069,6.069,0,0,0-4.765-2.227,7.136,7.136,0,0,0-6.055,2.891q-2.167,2.891-2.168,7.91Q123.033,38.375,125.24,41.266Zm4.394-9.023q0.255-4.922,3.3-4.922a3.153,3.153,0,0,1,3.086,1.875v8.047a3.24,3.24,0,0,1-3.125,1.836q-3.28,0-3.281-5.625Zm29.512,11.523h6.172V22.633H158.7V37.457a3.439,3.439,0,0,1-3.223,1.621q-2.637,0-2.636-2.715V22.633h-6.582V36.325a8.5,8.5,0,0,0,1.787,5.811,6.655,6.655,0,0,0,5.263,2.021,6.787,6.787,0,0,0,5.645-2.676Zm20.166-4.512a3.158,3.158,0,0,1-2.021.547,4.018,4.018,0,0,1-2.4-.674,2.543,2.543,0,0,1-.976-2.139h-6.153a6.01,6.01,0,0,0,1.192,3.535,8.1,8.1,0,0,0,3.32,2.656,11.5,11.5,0,0,0,4.844.977,11.262,11.262,0,0,0,6.65-1.816,5.536,5.536,0,0,0,2.569-4.707q0-4.238-4.766-5.879a23.742,23.742,0,0,0-3.311-.84,8.121,8.121,0,0,1-2.744-.9,1.637,1.637,0,0,1-.859-1.426,1.783,1.783,0,0,1,.7-1.436,2.653,2.653,0,0,1,1.738-.576q2.676,0,2.676,2.539h6.6a5.926,5.926,0,0,0-2.539-4.98,10.968,10.968,0,0,0-6.719-1.895,9.9,9.9,0,0,0-6.289,1.885,5.84,5.84,0,0,0-2.4,4.795,5.152,5.152,0,0,0,.839,2.91,6.8,6.8,0,0,0,2.442,2.158,15.209,15.209,0,0,0,4.062,1.436,13.373,13.373,0,0,1,3.34,1.055,1.521,1.521,0,0,1,.879,1.348A1.75,1.75,0,0,1,179.312,39.254Zm11.182-21.875v5.254h-2.7V27.2h2.7V37.692a6.563,6.563,0,0,0,1.621,4.863q1.621,1.6,5.019,1.6a12.149,12.149,0,0,0,3.711-.566V38.883a9.645,9.645,0,0,1-1.64.117,2.3,2.3,0,0,1-1.7-.469,2.465,2.465,0,0,1-.43-1.66V27.2h3.476v-4.57h-3.476V17.379h-6.582Zm25.547,5.1a6.419,6.419,0,0,0-1.836-.234,5.1,5.1,0,0,0-4.629,3.105l-0.215-2.715h-6.172V43.766h6.582V30.387q0.879-1.953,3.985-1.953l2.167,0.156Zm9.2,0.156h-6.6V43.766h6.6V22.633Zm-5.977-3.144a4.319,4.319,0,0,0,5.274,0,3.124,3.124,0,0,0,0-4.609,4.319,4.319,0,0,0-5.274,0A3.124,3.124,0,0,0,219.263,19.489Zm20.42,19.766a3.158,3.158,0,0,1-2.021.547,4.018,4.018,0,0,1-2.4-.674,2.543,2.543,0,0,1-.976-2.139H228.13a6.016,6.016,0,0,0,1.192,3.535,8.1,8.1,0,0,0,3.32,2.656,11.5,11.5,0,0,0,4.844.977,11.262,11.262,0,0,0,6.65-1.816,5.536,5.536,0,0,0,2.569-4.707q0-4.238-4.766-5.879a23.761,23.761,0,0,0-3.31-.84,8.12,8.12,0,0,1-2.745-.9,1.637,1.637,0,0,1-.859-1.426,1.783,1.783,0,0,1,.7-1.436,2.653,2.653,0,0,1,1.738-.576q2.676,0,2.676,2.539h6.6a5.926,5.926,0,0,0-2.539-4.98,10.968,10.968,0,0,0-6.719-1.895,9.9,9.9,0,0,0-6.289,1.885,5.84,5.84,0,0,0-2.4,4.795,5.152,5.152,0,0,0,.839,2.91,6.8,6.8,0,0,0,2.442,2.158,15.209,15.209,0,0,0,4.062,1.436,13.373,13.373,0,0,1,3.34,1.055,1.521,1.521,0,0,1,.879,1.348A1.75,1.75,0,0,1,239.683,39.254Z"/>
  <path id="Industry_Factory_company" data-name="Industry &amp; Factory company" class="cls-5" d="M91.154,53.513H89.677v8.531h1.477V53.513ZM94.018,55.7v6.34h1.424V57.532a1.372,1.372,0,0,1,1.283-.779,1.1,1.1,0,0,1,.852.29,1.306,1.306,0,0,1,.261.894v4.107h1.424v-4.19q-0.035-2.268-2.016-2.268a2.279,2.279,0,0,0-1.846.85L95.36,55.7H94.018Zm8.316,5.561a2.165,2.165,0,0,0,1.8.9,2.1,2.1,0,0,0,1.7-.773l0.07,0.656H107.2v-9h-1.424V56.29a2.069,2.069,0,0,0-1.629-.7,2.178,2.178,0,0,0-1.822.888,3.77,3.77,0,0,0-.68,2.353A3.907,3.907,0,0,0,102.334,61.265Zm1.11-3.964a1.217,1.217,0,0,1,1.067-.548,1.323,1.323,0,0,1,1.265.762v2.707A1.344,1.344,0,0,1,104.5,61a1.208,1.208,0,0,1-1.058-.542,2.639,2.639,0,0,1-.372-1.509A2.939,2.939,0,0,1,103.444,57.3Zm10.318,4.743H115.1V55.7h-1.424v4.553a1.407,1.407,0,0,1-1.4.744,0.987,0.987,0,0,1-1-1.207V55.7h-1.424v4.108a2.565,2.565,0,0,0,.531,1.746,1.967,1.967,0,0,0,1.561.6,2.207,2.207,0,0,0,1.781-.738Zm7.252-1.163a1.437,1.437,0,0,1-.855.214,1.482,1.482,0,0,1-.932-0.273,1.006,1.006,0,0,1-.381-0.776h-1.383a1.835,1.835,0,0,0,.34,1.061,2.286,2.286,0,0,0,.95.773,3.276,3.276,0,0,0,1.388.281,3.024,3.024,0,0,0,1.858-.53,1.653,1.653,0,0,0,.709-1.386,1.564,1.564,0,0,0-.232-0.867,1.863,1.863,0,0,0-.709-0.612,5.268,5.268,0,0,0-1.315-.44,3.792,3.792,0,0,1-1.114-.366,0.578,0.578,0,0,1-.275-0.51,0.684,0.684,0,0,1,.3-0.58,1.261,1.261,0,0,1,.765-0.217,1.166,1.166,0,0,1,.808.272,0.878,0.878,0,0,1,.3.683h1.424a1.787,1.787,0,0,0-.7-1.459,2.846,2.846,0,0,0-1.837-.562,2.734,2.734,0,0,0-1.758.551,1.688,1.688,0,0,0-.692,1.371A1.619,1.619,0,0,0,118.741,59a5.333,5.333,0,0,0,1.213.387,3.342,3.342,0,0,1,1.04.352,0.645,0.645,0,0,1,.313.58A0.66,0.66,0,0,1,121.014,60.881Zm4.493-6.718V55.7h-1.043v1.055h1.043v3.592a1.53,1.53,0,0,0,1.641,1.811,3.5,3.5,0,0,0,.937-0.135v-1.1a2.191,2.191,0,0,1-.5.059,0.663,0.663,0,0,1-.512-0.161,0.778,0.778,0,0,1-.144-0.524V56.759h1.119V55.7h-1.119V54.163h-1.424Zm8.155,1.506a1.334,1.334,0,0,0-.5-0.082,1.6,1.6,0,0,0-1.429.826l-0.035-.709h-1.36v6.34h1.424V57.708a1.306,1.306,0,0,1,1.318-.75,3.516,3.516,0,0,1,.58.047Zm3.075,0.035H135.2l2.227,6.306-0.205.544a1.3,1.3,0,0,1-.431.659,1.388,1.388,0,0,1-.812.2l-0.269-.018V64.5a2.534,2.534,0,0,0,.685.106,2.048,2.048,0,0,0,1.969-1.6l2.52-7.3h-1.518L138.079,60Zm10.888,5.786a2.942,2.942,0,0,0,2.024.671,3.531,3.531,0,0,0,2.18-.686l0.48,0.568h1.653l-1.254-1.482a4.263,4.263,0,0,0,.738-2.584H152.21a3.406,3.406,0,0,1-.358,1.564L150.206,57.6l0.58-.422a3.182,3.182,0,0,0,.884-0.894,1.867,1.867,0,0,0,.27-0.981,1.769,1.769,0,0,0-.595-1.356,2.163,2.163,0,0,0-1.526-.548,2.276,2.276,0,0,0-1.641.583,2.207,2.207,0,0,0-.413,2.435,5.279,5.279,0,0,0,.7,1.066,5.066,5.066,0,0,0-1.272,1.175,1.951,1.951,0,0,0-.322,1.087A2.224,2.224,0,0,0,147.625,61.49Zm1.045-.835a1.281,1.281,0,0,1-.38-0.961,1.522,1.522,0,0,1,.7-1.219l0.181-.129,1.864,2.2a2.176,2.176,0,0,1-1.348.48A1.4,1.4,0,0,1,148.67,60.655Zm0.481-5.836a0.836,0.836,0,0,1,.662-0.281,0.9,0.9,0,0,1,.639.237,0.757,0.757,0,0,1,.252.571,1.052,1.052,0,0,1-.364.826l-0.181.146-0.651.445a2.18,2.18,0,0,1-.6-1.236A1.038,1.038,0,0,1,149.151,54.819ZM165.2,57.245H161.77V54.708h3.937v-1.2h-5.42v8.531h1.483V58.429H165.2V57.245Zm7.78,4.8v-0.1a3.244,3.244,0,0,1-.24-1.365V57.72a2,2,0,0,0-.68-1.573,2.659,2.659,0,0,0-1.775-.56,3.3,3.3,0,0,0-1.327.258,2.306,2.306,0,0,0-.941.712,1.582,1.582,0,0,0-.345.976H169.1a0.752,0.752,0,0,1,.31-0.618,1.255,1.255,0,0,1,.8-0.243,1.093,1.093,0,0,1,.838.3,1.113,1.113,0,0,1,.275.788v0.416h-0.873a3.65,3.65,0,0,0-2.153.542,1.8,1.8,0,0,0-.753,1.556,1.741,1.741,0,0,0,.6,1.348,2.394,2.394,0,0,0,3.222-.164,2.221,2.221,0,0,0,.164.592h1.453Zm-3.747-1.269a0.834,0.834,0,0,1-.272-0.653,0.893,0.893,0,0,1,.4-0.779,2.1,2.1,0,0,1,1.19-.275h0.767v1.2a1.368,1.368,0,0,1-.559.551,1.62,1.62,0,0,1-.794.205A1.056,1.056,0,0,1,169.236,60.775Zm7.728-.258a2.6,2.6,0,0,1-.372-1.538V58.751a2.55,2.55,0,0,1,.38-1.52,1.254,1.254,0,0,1,1.067-.5,1.2,1.2,0,0,1,.888.352,1.307,1.307,0,0,1,.372.9h1.341a2.358,2.358,0,0,0-.747-1.731,2.6,2.6,0,0,0-1.842-.659,2.68,2.68,0,0,0-2.11.87,3.362,3.362,0,0,0-.773,2.317v0.147a3.414,3.414,0,0,0,.779,2.379,2.7,2.7,0,0,0,2.109.861,2.8,2.8,0,0,0,1.278-.3,2.419,2.419,0,0,0,.937-0.812,2.081,2.081,0,0,0,.369-1.1H179.3a1.064,1.064,0,0,1-.375.768,1.29,1.29,0,0,1-.885.31A1.251,1.251,0,0,1,176.964,60.518Zm6.312-6.355V55.7h-1.043v1.055h1.043v3.592a1.53,1.53,0,0,0,1.641,1.811,3.508,3.508,0,0,0,.937-0.135v-1.1a2.191,2.191,0,0,1-.5.059,0.667,0.667,0,0,1-.513-0.161A0.783,0.783,0,0,1,184.7,60.3V56.759h1.119V55.7H184.7V54.163h-1.424Zm4.387,4.723a3.423,3.423,0,0,0,.806,2.382,2.751,2.751,0,0,0,2.148.894,2.94,2.94,0,0,0,1.549-.4,2.666,2.666,0,0,0,1.032-1.143,3.775,3.775,0,0,0,.36-1.676l-0.006-.334a3.251,3.251,0,0,0-.864-2.191,2.77,2.77,0,0,0-2.083-.826,2.922,2.922,0,0,0-1.535.4,2.691,2.691,0,0,0-1.037,1.148,3.726,3.726,0,0,0-.37,1.679v0.07Zm1.834-1.6a1.393,1.393,0,0,1,2.23.009,2.525,2.525,0,0,1,.413,1.523,2.826,2.826,0,0,1-.4,1.646,1.41,1.41,0,0,1-2.247.009,2.551,2.551,0,0,1-.405-1.532A2.772,2.772,0,0,1,189.5,57.283Zm9.79-1.614a1.334,1.334,0,0,0-.5-0.082,1.6,1.6,0,0,0-1.429.826l-0.035-.709h-1.36v6.34h1.424V57.708a1.306,1.306,0,0,1,1.318-.75,3.516,3.516,0,0,1,.58.047Zm3.075,0.035h-1.535l2.227,6.306-0.205.544a1.3,1.3,0,0,1-.431.659,1.388,1.388,0,0,1-.812.2l-0.269-.018V64.5a2.534,2.534,0,0,0,.685.106,2.048,2.048,0,0,0,1.969-1.6l2.52-7.3h-1.518L203.7,60Zm11.884,4.813a2.6,2.6,0,0,1-.372-1.538V58.751a2.55,2.55,0,0,1,.38-1.52,1.254,1.254,0,0,1,1.067-.5,1.2,1.2,0,0,1,.888.352,1.307,1.307,0,0,1,.372.9h1.341a2.358,2.358,0,0,0-.747-1.731,2.6,2.6,0,0,0-1.842-.659,2.68,2.68,0,0,0-2.11.87,3.362,3.362,0,0,0-.773,2.317v0.147a3.419,3.419,0,0,0,.779,2.379,2.7,2.7,0,0,0,2.109.861,2.8,2.8,0,0,0,1.278-.3,2.419,2.419,0,0,0,.937-0.812,2.081,2.081,0,0,0,.369-1.1h-1.341a1.064,1.064,0,0,1-.375.768,1.29,1.29,0,0,1-.885.31A1.251,1.251,0,0,1,214.246,60.518Zm5.685-1.632a3.423,3.423,0,0,0,.806,2.382,2.75,2.75,0,0,0,2.147.894,2.944,2.944,0,0,0,1.55-.4,2.664,2.664,0,0,0,1.031-1.143,3.775,3.775,0,0,0,.361-1.676L225.82,58.6a3.246,3.246,0,0,0-.865-2.191,2.768,2.768,0,0,0-2.083-.826,2.924,2.924,0,0,0-1.535.4,2.7,2.7,0,0,0-1.037,1.148,3.739,3.739,0,0,0-.369,1.679v0.07Zm1.834-1.6a1.307,1.307,0,0,1,1.107-.554,1.321,1.321,0,0,1,1.123.563,2.525,2.525,0,0,1,.413,1.523,2.818,2.818,0,0,1-.4,1.646,1.3,1.3,0,0,1-1.122.563,1.315,1.315,0,0,1-1.125-.554,2.558,2.558,0,0,1-.4-1.532A2.772,2.772,0,0,1,221.765,57.283Zm6.462-1.579v6.34h1.424V57.45a1.252,1.252,0,0,1,1.212-.7,1.016,1.016,0,0,1,1.143,1.119v4.172h1.424L233.424,57.7a1.376,1.376,0,0,1,.431-0.683,1.184,1.184,0,0,1,.794-0.261,1.155,1.155,0,0,1,.873.281,1.265,1.265,0,0,1,.263.885v4.125h1.424V57.878a2.554,2.554,0,0,0-.524-1.711,1.978,1.978,0,0,0-1.562-.58,2.248,2.248,0,0,0-1.945.973,1.753,1.753,0,0,0-1.74-.973,2.28,2.28,0,0,0-1.828.779l-0.041-.662h-1.342Zm17.2,3.146a3.878,3.878,0,0,0-.659-2.4,2.163,2.163,0,0,0-1.82-.864,2.092,2.092,0,0,0-1.7.762l-0.058-.645h-1.313v8.777h1.424V61.476a2.32,2.32,0,0,0,3.463-.19,3.777,3.777,0,0,0,.668-2.347V58.851Zm-1.8,1.626a1.227,1.227,0,0,1-1.063.548,1.323,1.323,0,0,1-1.266-.738V57.474a1.31,1.31,0,0,1,1.254-.721,1.228,1.228,0,0,1,1.081.557,2.644,2.644,0,0,1,.378,1.506A2.909,2.909,0,0,1,243.621,60.477Zm9.447,1.567v-0.1a3.244,3.244,0,0,1-.24-1.365V57.72a2,2,0,0,0-.68-1.573,2.659,2.659,0,0,0-1.775-.56,3.3,3.3,0,0,0-1.327.258,2.306,2.306,0,0,0-.941.712,1.582,1.582,0,0,0-.345.976h1.423a0.753,0.753,0,0,1,.311-0.618,1.255,1.255,0,0,1,.8-0.243,1.093,1.093,0,0,1,.838.3,1.113,1.113,0,0,1,.275.788v0.416h-0.873a3.648,3.648,0,0,0-2.153.542,1.8,1.8,0,0,0-.753,1.556,1.744,1.744,0,0,0,.6,1.348,2.4,2.4,0,0,0,3.223-.164,2.183,2.183,0,0,0,.164.592h1.453Zm-3.747-1.269a0.83,0.83,0,0,1-.272-0.653,0.891,0.891,0,0,1,.4-0.779,2.1,2.1,0,0,1,1.19-.275H251.4v1.2a1.368,1.368,0,0,1-.559.551,1.622,1.622,0,0,1-.794.205A1.056,1.056,0,0,1,249.321,60.775ZM255.5,55.7v6.34h1.423V57.532a1.373,1.373,0,0,1,1.284-.779,1.1,1.1,0,0,1,.852.29,1.3,1.3,0,0,1,.261.894v4.107h1.424v-4.19q-0.036-2.268-2.016-2.268a2.28,2.28,0,0,0-1.846.85L256.84,55.7H255.5Zm8.77,0h-1.535l2.226,6.306-0.2.544a1.3,1.3,0,0,1-.43.659,1.39,1.39,0,0,1-.812.2l-0.269-.018V64.5a2.528,2.528,0,0,0,.685.106A2.048,2.048,0,0,0,265.9,63l2.519-7.3H266.9L265.611,60Z"/>
</svg>
